<svg xmlns="http://www.w3.org/2000/svg" xmlns:xlink="http://www.w3.org/1999/xlink" width="320" zoomAndPan="magnify" viewBox="0 0 240 74.999997" height="100" preserveAspectRatio="xMidYMid meet" version="1.0"><defs><g/><clipPath id="88e362e696"><path d="M 47 4.839844 L 79 4.839844 L 79 26 L 47 26 Z M 47 4.839844 " clip-rule="nonzero"/></clipPath><clipPath id="82a57efb4b"><path d="M 30.027344 16 L 53 16 L 53 47 L 30.027344 47 Z M 30.027344 16 " clip-rule="nonzero"/></clipPath></defs><rect x="-24" width="288" fill="#ffffff" y="-7.5" height="89.999996" fill-opacity="1"/><rect x="-24" width="288" fill="#ffffff" y="-7.5" height="89.999996" fill-opacity="1"/><rect x="-24" width="288" fill="#ffffff" y="-7.5" height="89.999996" fill-opacity="1"/><g clip-path="url(#88e362e696)"><path fill="#f23005" d="M 57.816406 10.34375 C 57.816406 7.308594 60.277344 4.851562 63.308594 4.851562 C 66.34375 4.851562 68.804688 7.308594 68.804688 10.34375 C 68.804688 13.378906 66.34375 15.835938 63.308594 15.835938 C 60.277344 15.835938 57.816406 13.378906 57.816406 10.34375 Z M 74.957031 12.019531 C 70.203125 16.199219 66.128906 19.140625 63.308594 19.140625 C 60.492188 19.140625 56.417969 16.199219 51.664062 12.019531 C 49.628906 10.230469 46.664062 12.683594 48.035156 15.019531 L 56.84375 25.730469 C 58.792969 24.769531 60.988281 24.226562 63.308594 24.226562 C 65.628906 24.226562 67.824219 24.769531 69.773438 25.730469 L 78.582031 15.019531 C 79.957031 12.683594 76.988281 10.230469 74.957031 12.019531 Z M 74.957031 12.019531 " fill-opacity="1" fill-rule="nonzero"/></g><path fill="#04bfbf" d="M 88.734375 24.824219 C 91.621094 23.886719 94.71875 25.464844 95.65625 28.351562 C 96.59375 31.234375 95.015625 34.335938 92.128906 35.273438 C 89.246094 36.210938 86.144531 34.628906 85.207031 31.746094 C 84.269531 28.859375 85.847656 25.761719 88.734375 24.824219 Z M 92.4375 41.640625 C 86.992188 38.410156 82.9375 35.445312 82.066406 32.765625 C 81.195312 30.085938 82.734375 25.304688 85.242188 19.492188 C 86.3125 17.003906 83.0625 14.941406 81.265625 16.964844 L 73.796875 28.652344 C 75.316406 30.210938 76.507812 32.128906 77.226562 34.339844 C 77.945312 36.546875 78.105469 38.800781 77.796875 40.953125 L 90.707031 46.019531 C 93.351562 46.601562 94.765625 43.019531 92.4375 41.640625 Z M 92.4375 41.640625 " fill-opacity="1" fill-rule="nonzero"/><path fill="#004aad" d="M 84.515625 58.699219 C 86.300781 61.152344 85.757812 64.589844 83.300781 66.371094 C 80.847656 68.15625 77.410156 67.613281 75.628906 65.15625 C 73.84375 62.703125 74.386719 59.265625 76.84375 57.484375 C 79.296875 55.699219 82.734375 56.246094 84.515625 58.699219 Z M 69.667969 67.417969 C 71.054688 61.242188 72.621094 56.46875 74.902344 54.808594 C 77.179688 53.152344 82.207031 53.140625 88.507812 53.726562 C 91.207031 53.980469 92.164062 50.25 89.683594 49.167969 L 76.257812 45.679688 C 75.246094 47.601562 73.789062 49.332031 71.910156 50.695312 C 70.03125 52.058594 67.9375 52.910156 65.796875 53.277344 L 64.96875 67.121094 C 65.230469 69.816406 69.074219 70.058594 69.667969 67.417969 Z M 69.667969 67.417969 " fill-opacity="1" fill-rule="nonzero"/><path fill="#f2b705" d="M 50.992188 65.15625 C 49.210938 67.613281 45.773438 68.15625 43.316406 66.371094 C 40.863281 64.589844 40.320312 61.152344 42.101562 58.699219 C 43.886719 56.246094 47.324219 55.699219 49.777344 57.484375 C 52.230469 59.265625 52.777344 62.703125 50.992188 65.15625 Z M 38.109375 53.726562 C 44.414062 53.140625 49.4375 53.152344 51.71875 54.808594 C 54 56.46875 55.5625 61.242188 56.953125 67.417969 C 57.546875 70.058594 61.390625 69.820312 61.652344 67.125 L 60.824219 53.277344 C 58.679688 52.910156 56.585938 52.058594 54.710938 50.695312 C 52.832031 49.332031 51.375 47.601562 50.363281 45.679688 L 36.9375 49.167969 C 34.457031 50.25 35.414062 53.980469 38.109375 53.726562 Z M 38.109375 53.726562 " fill-opacity="1" fill-rule="nonzero"/><g clip-path="url(#82a57efb4b)"><path fill="#f20574" d="M 34.488281 35.273438 C 31.605469 34.335938 30.023438 31.234375 30.960938 28.351562 C 31.898438 25.464844 35 23.886719 37.886719 24.824219 C 40.769531 25.761719 42.351562 28.859375 41.414062 31.746094 C 40.476562 34.628906 37.375 36.210938 34.488281 35.273438 Z M 41.378906 19.492188 C 43.886719 25.304688 45.425781 30.085938 44.554688 32.765625 C 43.683594 35.445312 39.625 38.410156 34.183594 41.640625 C 31.851562 43.019531 33.269531 46.601562 35.914062 46.015625 L 48.824219 40.949219 C 48.511719 38.800781 48.675781 36.546875 49.394531 34.335938 C 50.109375 32.128906 51.304688 30.210938 52.820312 28.652344 L 45.355469 16.964844 C 43.558594 14.941406 40.308594 17.003906 41.378906 19.492188 Z M 41.378906 19.492188 " fill-opacity="1" fill-rule="nonzero"/></g><g fill="#004aad" fill-opacity="1"><g transform="translate(103.60485, 32.585396)"><g><path d="M 6.546875 -9.96875 C 5.597656 -9.96875 4.863281 -9.609375 4.34375 -8.890625 C 3.820312 -8.179688 3.5625 -7.191406 3.5625 -5.921875 C 3.5625 -3.265625 4.554688 -1.9375 6.546875 -1.9375 C 7.390625 -1.9375 8.40625 -2.144531 9.59375 -2.5625 L 9.59375 -0.453125 C 8.613281 -0.046875 7.519531 0.15625 6.3125 0.15625 C 4.582031 0.15625 3.257812 -0.363281 2.34375 -1.40625 C 1.425781 -2.457031 0.96875 -3.96875 0.96875 -5.9375 C 0.96875 -7.175781 1.191406 -8.257812 1.640625 -9.1875 C 2.085938 -10.113281 2.734375 -10.828125 3.578125 -11.328125 C 4.429688 -11.828125 5.421875 -12.078125 6.546875 -12.078125 C 7.703125 -12.078125 8.863281 -11.796875 10.03125 -11.234375 L 9.21875 -9.1875 C 8.78125 -9.394531 8.332031 -9.578125 7.875 -9.734375 C 7.425781 -9.890625 6.984375 -9.96875 6.546875 -9.96875 Z M 6.546875 -9.96875 "/></g></g></g><g fill="#004aad" fill-opacity="1"><g transform="translate(113.931658, 32.585396)"><g><path d="M 12.296875 -5.96875 C 12.296875 -4 11.804688 -2.484375 10.828125 -1.421875 C 9.859375 -0.367188 8.460938 0.15625 6.640625 0.15625 C 4.816406 0.15625 3.414062 -0.367188 2.4375 -1.421875 C 1.457031 -2.484375 0.96875 -4.003906 0.96875 -5.984375 C 0.96875 -7.960938 1.457031 -9.472656 2.4375 -10.515625 C 3.414062 -11.566406 4.820312 -12.09375 6.65625 -12.09375 C 8.476562 -12.09375 9.875 -11.566406 10.84375 -10.515625 C 11.8125 -9.460938 12.296875 -7.945312 12.296875 -5.96875 Z M 3.609375 -5.96875 C 3.609375 -4.632812 3.859375 -3.628906 4.359375 -2.953125 C 4.867188 -2.285156 5.628906 -1.953125 6.640625 -1.953125 C 8.648438 -1.953125 9.65625 -3.289062 9.65625 -5.96875 C 9.65625 -8.644531 8.65625 -9.984375 6.65625 -9.984375 C 5.644531 -9.984375 4.882812 -9.644531 4.375 -8.96875 C 3.863281 -8.300781 3.609375 -7.300781 3.609375 -5.96875 Z M 3.609375 -5.96875 "/></g></g></g><g fill="#004aad" fill-opacity="1"><g transform="translate(126.905044, 32.585396)"><g><path d="M 11.375 -6.0625 C 11.375 -4.101562 10.816406 -2.601562 9.703125 -1.5625 C 8.585938 -0.519531 6.976562 0 4.875 0 L 1.5 0 L 1.5 -11.90625 L 5.234375 -11.90625 C 7.179688 -11.90625 8.691406 -11.390625 9.765625 -10.359375 C 10.835938 -9.335938 11.375 -7.90625 11.375 -6.0625 Z M 8.75 -6 C 8.75 -8.550781 7.617188 -9.828125 5.359375 -9.828125 L 4.015625 -9.828125 L 4.015625 -2.078125 L 5.109375 -2.078125 C 7.535156 -2.078125 8.75 -3.382812 8.75 -6 Z M 8.75 -6 "/></g></g></g><g fill="#004aad" fill-opacity="1"><g transform="translate(138.950092, 32.585396)"><g><path d="M 8.359375 0 L 1.5 0 L 1.5 -11.90625 L 8.359375 -11.90625 L 8.359375 -9.828125 L 4.015625 -9.828125 L 4.015625 -7.21875 L 8.046875 -7.21875 L 8.046875 -5.15625 L 4.015625 -5.15625 L 4.015625 -2.078125 L 8.359375 -2.078125 Z M 8.359375 0 "/></g></g></g><g fill="#004aad" fill-opacity="1"><g transform="translate(147.990254, 32.585396)"><g/></g></g><g fill="#004aad" fill-opacity="1"><g transform="translate(152.022267, 32.585396)"><g><path d="M 3.984375 0 L 1.5 0 L 1.5 -11.90625 L 8.3125 -11.90625 L 8.3125 -9.828125 L 3.984375 -9.828125 L 3.984375 -6.765625 L 8.015625 -6.765625 L 8.015625 -4.703125 L 3.984375 -4.703125 Z M 3.984375 0 "/></g></g></g><g fill="#004aad" fill-opacity="1"><g transform="translate(160.875133, 32.585396)"><g><path d="M 12.296875 -5.96875 C 12.296875 -4 11.804688 -2.484375 10.828125 -1.421875 C 9.859375 -0.367188 8.460938 0.15625 6.640625 0.15625 C 4.816406 0.15625 3.414062 -0.367188 2.4375 -1.421875 C 1.457031 -2.484375 0.96875 -4.003906 0.96875 -5.984375 C 0.96875 -7.960938 1.457031 -9.472656 2.4375 -10.515625 C 3.414062 -11.566406 4.820312 -12.09375 6.65625 -12.09375 C 8.476562 -12.09375 9.875 -11.566406 10.84375 -10.515625 C 11.8125 -9.460938 12.296875 -7.945312 12.296875 -5.96875 Z M 3.609375 -5.96875 C 3.609375 -4.632812 3.859375 -3.628906 4.359375 -2.953125 C 4.867188 -2.285156 5.628906 -1.953125 6.640625 -1.953125 C 8.648438 -1.953125 9.65625 -3.289062 9.65625 -5.96875 C 9.65625 -8.644531 8.65625 -9.984375 6.65625 -9.984375 C 5.644531 -9.984375 4.882812 -9.644531 4.375 -8.96875 C 3.863281 -8.300781 3.609375 -7.300781 3.609375 -5.96875 Z M 3.609375 -5.96875 "/></g></g></g><g fill="#004aad" fill-opacity="1"><g transform="translate(173.848518, 32.585396)"><g><path d="M 4.015625 -6.625 L 4.828125 -6.625 C 5.628906 -6.625 6.21875 -6.753906 6.59375 -7.015625 C 6.976562 -7.285156 7.171875 -7.703125 7.171875 -8.265625 C 7.171875 -8.835938 6.972656 -9.238281 6.578125 -9.46875 C 6.191406 -9.707031 5.59375 -9.828125 4.78125 -9.828125 L 4.015625 -9.828125 Z M 4.015625 -4.5625 L 4.015625 0 L 1.5 0 L 1.5 -11.90625 L 4.96875 -11.90625 C 6.582031 -11.90625 7.773438 -11.609375 8.546875 -11.015625 C 9.328125 -10.429688 9.71875 -9.539062 9.71875 -8.34375 C 9.71875 -7.632812 9.523438 -7.007812 9.140625 -6.46875 C 8.753906 -5.925781 8.207031 -5.5 7.5 -5.1875 C 9.289062 -2.507812 10.457031 -0.78125 11 0 L 8.203125 0 L 5.359375 -4.5625 Z M 4.015625 -4.5625 "/></g></g></g><g fill="#004aad" fill-opacity="1"><g transform="translate(103.60485, 55.371274)"><g><path d="M 6.546875 -9.96875 C 5.597656 -9.96875 4.863281 -9.609375 4.34375 -8.890625 C 3.820312 -8.179688 3.5625 -7.191406 3.5625 -5.921875 C 3.5625 -3.265625 4.554688 -1.9375 6.546875 -1.9375 C 7.390625 -1.9375 8.40625 -2.144531 9.59375 -2.5625 L 9.59375 -0.453125 C 8.613281 -0.046875 7.519531 0.15625 6.3125 0.15625 C 4.582031 0.15625 3.257812 -0.363281 2.34375 -1.40625 C 1.425781 -2.457031 0.96875 -3.96875 0.96875 -5.9375 C 0.96875 -7.175781 1.191406 -8.257812 1.640625 -9.1875 C 2.085938 -10.113281 2.734375 -10.828125 3.578125 -11.328125 C 4.429688 -11.828125 5.421875 -12.078125 6.546875 -12.078125 C 7.703125 -12.078125 8.863281 -11.796875 10.03125 -11.234375 L 9.21875 -9.1875 C 8.78125 -9.394531 8.332031 -9.578125 7.875 -9.734375 C 7.425781 -9.890625 6.984375 -9.96875 6.546875 -9.96875 Z M 6.546875 -9.96875 "/></g></g></g><g fill="#004aad" fill-opacity="1"><g transform="translate(113.931658, 55.371274)"><g><path d="M 12.296875 -5.96875 C 12.296875 -4 11.804688 -2.484375 10.828125 -1.421875 C 9.859375 -0.367188 8.460938 0.15625 6.640625 0.15625 C 4.816406 0.15625 3.414062 -0.367188 2.4375 -1.421875 C 1.457031 -2.484375 0.96875 -4.003906 0.96875 -5.984375 C 0.96875 -7.960938 1.457031 -9.472656 2.4375 -10.515625 C 3.414062 -11.566406 4.820312 -12.09375 6.65625 -12.09375 C 8.476562 -12.09375 9.875 -11.566406 10.84375 -10.515625 C 11.8125 -9.460938 12.296875 -7.945312 12.296875 -5.96875 Z M 3.609375 -5.96875 C 3.609375 -4.632812 3.859375 -3.628906 4.359375 -2.953125 C 4.867188 -2.285156 5.628906 -1.953125 6.640625 -1.953125 C 8.648438 -1.953125 9.65625 -3.289062 9.65625 -5.96875 C 9.65625 -8.644531 8.65625 -9.984375 6.65625 -9.984375 C 5.644531 -9.984375 4.882812 -9.644531 4.375 -8.96875 C 3.863281 -8.300781 3.609375 -7.300781 3.609375 -5.96875 Z M 3.609375 -5.96875 "/></g></g></g><g fill="#004aad" fill-opacity="1"><g transform="translate(126.905044, 55.371274)"><g><path d="M 6.53125 0 L 3.671875 -9.34375 L 3.59375 -9.34375 C 3.695312 -7.4375 3.75 -6.164062 3.75 -5.53125 L 3.75 0 L 1.5 0 L 1.5 -11.90625 L 4.9375 -11.90625 L 7.75 -2.796875 L 7.796875 -2.796875 L 10.78125 -11.90625 L 14.21875 -11.90625 L 14.21875 0 L 11.875 0 L 11.875 -5.640625 C 11.875 -5.898438 11.875 -6.203125 11.875 -6.546875 C 11.882812 -6.898438 11.921875 -7.828125 11.984375 -9.328125 L 11.921875 -9.328125 L 8.84375 0 Z M 6.53125 0 "/></g></g></g><g fill="#004aad" fill-opacity="1"><g transform="translate(142.329572, 55.371274)"><g><path d="M 6.53125 0 L 3.671875 -9.34375 L 3.59375 -9.34375 C 3.695312 -7.4375 3.75 -6.164062 3.75 -5.53125 L 3.75 0 L 1.5 0 L 1.5 -11.90625 L 4.9375 -11.90625 L 7.75 -2.796875 L 7.796875 -2.796875 L 10.78125 -11.90625 L 14.21875 -11.90625 L 14.21875 0 L 11.875 0 L 11.875 -5.640625 C 11.875 -5.898438 11.875 -6.203125 11.875 -6.546875 C 11.882812 -6.898438 11.921875 -7.828125 11.984375 -9.328125 L 11.921875 -9.328125 L 8.84375 0 Z M 6.53125 0 "/></g></g></g><g fill="#004aad" fill-opacity="1"><g transform="translate(157.754102, 55.371274)"><g><path d="M 11.1875 -11.90625 L 11.1875 -4.203125 C 11.1875 -3.316406 10.988281 -2.539062 10.59375 -1.875 C 10.195312 -1.21875 9.628906 -0.710938 8.890625 -0.359375 C 8.148438 -0.015625 7.269531 0.15625 6.25 0.15625 C 4.71875 0.15625 3.53125 -0.234375 2.6875 -1.015625 C 1.84375 -1.796875 1.421875 -2.867188 1.421875 -4.234375 L 1.421875 -11.90625 L 3.9375 -11.90625 L 3.9375 -4.609375 C 3.9375 -3.691406 4.117188 -3.019531 4.484375 -2.59375 C 4.847656 -2.164062 5.457031 -1.953125 6.3125 -1.953125 C 7.132812 -1.953125 7.734375 -2.164062 8.109375 -2.59375 C 8.484375 -3.03125 8.671875 -3.707031 8.671875 -4.625 L 8.671875 -11.90625 Z M 11.1875 -11.90625 "/></g></g></g><g fill="#004aad" fill-opacity="1"><g transform="translate(170.059734, 55.371274)"><g><path d="M 12.0625 0 L 8.84375 0 L 3.671875 -9 L 3.59375 -9 C 3.695312 -7.414062 3.75 -6.28125 3.75 -5.59375 L 3.75 0 L 1.5 0 L 1.5 -11.90625 L 4.6875 -11.90625 L 9.84375 -2.984375 L 9.90625 -2.984375 C 9.820312 -4.535156 9.78125 -5.628906 9.78125 -6.265625 L 9.78125 -11.90625 L 12.0625 -11.90625 Z M 12.0625 0 "/></g></g></g><g fill="#004aad" fill-opacity="1"><g transform="translate(183.318139, 55.371274)"><g><path d="M 1.5 0 L 1.5 -11.90625 L 4.015625 -11.90625 L 4.015625 0 Z M 1.5 0 "/></g></g></g><g fill="#004aad" fill-opacity="1"><g transform="translate(188.539078, 55.371274)"><g><path d="M 6.09375 0 L 3.5625 0 L 3.5625 -9.796875 L 0.328125 -9.796875 L 0.328125 -11.90625 L 9.328125 -11.90625 L 9.328125 -9.796875 L 6.09375 -9.796875 Z M 6.09375 0 "/></g></g></g><g fill="#004aad" fill-opacity="1"><g transform="translate(197.896826, 55.371274)"><g><path d="M 5.203125 -7 L 7.6875 -11.90625 L 10.40625 -11.90625 L 6.453125 -4.625 L 6.453125 0 L 3.953125 0 L 3.953125 -4.546875 L 0 -11.90625 L 2.734375 -11.90625 Z M 5.203125 -7 "/></g></g></g></svg>