<svg xmlns="http://www.w3.org/2000/svg" xmlns:xlink="http://www.w3.org/1999/xlink" width="250" zoomAndPan="magnify" viewBox="0 0 187.5 75" height="100" preserveAspectRatio="xMidYMid meet" xmlns:v="https://vecta.io/nano"><defs><clipPath id="A"><path d="M0 .102h187v74.797H0zm0 0" clip-rule="nonzero"/></clipPath><clipPath id="B"><path d="M18 3.566h33V26H18zm0 0" clip-rule="nonzero"/></clipPath><path id="C" d="M83.495 22.088c-.992 0-1.758.375-2.297 1.125-.543.742-.812 1.773-.812 3.094 0 2.773 1.035 4.156 3.109 4.156.875 0 1.93-.219 3.172-.656v2.203c-1.023.43-2.164.641-3.422.641-1.805 0-3.184-.547-4.141-1.641-.949-1.094-1.422-2.664-1.422-4.719 0-1.289.234-2.422.703-3.391s1.141-1.707 2.016-2.219c.883-.52 1.914-.781 3.094-.781 1.207 0 2.414.293 3.625.875l-.844 2.141c-.461-.227-.922-.422-1.391-.578-.469-.164-.934-.25-1.391-.25zm0 0"/><path id="D" d="M100.24 26.26c0 2.055-.512 3.633-1.531 4.734-1.012 1.105-2.465 1.656-4.359 1.656-1.906 0-3.371-.551-4.391-1.656-1.012-1.102-1.516-2.687-1.516-4.75s.508-3.633 1.531-4.719c1.02-1.094 2.484-1.641 4.391-1.641s3.359.547 4.359 1.641c1.008 1.094 1.516 2.672 1.516 4.734zm-9.047 0c0 1.387.258 2.434.781 3.141.531.699 1.32 1.047 2.375 1.047 2.094 0 3.141-1.395 3.141-4.187s-1.043-4.187-3.125-4.187c-1.055 0-1.844.355-2.375 1.063-.531.699-.797 1.742-.797 3.125zm0 0"/><path id="E" d="M107.758 56.221l-2.984-9.734h-.078l.156 3.969v5.766h-2.344V43.815h3.578l2.938 9.484h.047l3.109-9.484h3.594v12.406h-2.453v-5.875-.953l.125-2.891h-.078l-3.203 9.719zm0 0"/></defs><g clip-path="url(#A)" fill="#fff"><path d="M0 .102h187.5v82.5H0zm0 0"/><path d="M0 .102h187.5v75H0zm0 0"/><path d="M0 .102h187.5v75H0zm0 0"/><path d="M0 .102h187.5v75H0zm0 0"/></g><g clip-path="url(#B)"><path fill="#f23005" d="M28.957 9.305c0-3.16 2.563-5.723 5.723-5.723s5.727 2.562 5.727 5.723-2.562 5.723-5.727 5.723-5.723-2.562-5.723-5.723zm17.859 1.746c-4.953 4.355-9.199 7.422-12.137 7.422s-7.18-3.066-12.133-7.422c-2.121-1.863-5.211.691-3.781 3.125l9.176 11.16a15.22 15.22 0 0 1 13.477 0l9.18-11.16c1.43-2.434-1.664-4.988-3.781-3.125zm0 0"/></g><path fill="#04bfbf" d="M61.172 24.391c3.008-.977 6.238.668 7.215 3.676s-.668 6.234-3.676 7.211-6.238-.668-7.215-3.676.672-6.234 3.676-7.211zm3.859 17.523c-5.672-3.367-9.902-6.453-10.809-9.246s.699-7.777 3.309-13.832c1.117-2.59-2.27-4.742-4.141-2.633l-7.781 12.18a15.19 15.19 0 0 1 3.574 5.922c.746 2.301.914 4.648.59 6.891l13.453 5.281c2.758.605 4.23-3.125 1.805-4.562zm0 0"/><path fill="#004aad" d="M56.777 59.688c1.859 2.559 1.293 6.137-1.266 7.996s-6.137 1.293-7.996-1.266-1.293-6.137 1.266-7.996 6.141-1.293 7.996 1.266zm-15.473 9.086c1.445-6.437 3.078-11.41 5.453-13.137s7.613-1.738 14.18-1.129c2.809.262 3.809-3.621 1.223-4.75l-13.988-3.637a15.23 15.23 0 0 1-4.527 5.227 15.18 15.18 0 0 1-6.375 2.691l-.863 14.426c.277 2.809 4.277 3.059 4.898.309zm0 0"/><path fill="#f2b705" d="M21.848 66.418c-1.859 2.559-5.437 3.125-7.996 1.266s-3.125-5.437-1.266-7.996 5.437-3.125 7.996-1.266a5.73 5.73 0 0 1 1.266 7.996zM8.426 54.508c6.566-.609 11.801-.598 14.176 1.129s4.008 6.699 5.457 13.137c.617 2.75 4.621 2.5 4.895-.309l-.863-14.422c-2.23-.387-4.414-1.273-6.371-2.695a15.15 15.15 0 0 1-4.527-5.227L7.203 49.758c-2.586 1.129-1.59 5.012 1.223 4.75zm0 0"/><path fill="#f20574" d="M4.652 35.277C1.645 34.301 0 31.07.977 28.066s4.207-4.652 7.211-3.676a5.72 5.72 0 0 1 3.676 7.211c-.977 3.008-4.203 4.652-7.211 3.676zm7.18-16.441c2.609 6.055 4.215 11.039 3.309 13.832s-5.137 5.879-10.809 9.246c-2.43 1.438-.953 5.168 1.805 4.559l13.453-5.277a15.16 15.16 0 0 1 .59-6.891 15.19 15.19 0 0 1 3.574-5.922l-7.781-12.18c-1.875-2.109-5.258.039-4.141 2.633zm0 0"/><g fill="#004aad"><use xlink:href="#C"/><use xlink:href="#D"/><path d="M112.804 26.151c0 2.043-.586 3.609-1.75 4.703-1.168 1.086-2.844 1.625-5.031 1.625h-3.516V20.073h3.891c2.031 0 3.602.539 4.719 1.609 1.125 1.063 1.688 2.555 1.688 4.469zm-2.734.078c0-2.664-1.18-4-3.531-4h-1.406v8.078h1.125c2.539 0 3.813-1.359 3.813-4.078zm12.128 6.25h-7.141V20.073h7.141v2.156h-4.516v2.719h4.203v2.156h-4.203v3.203h4.516zm9.074 0h-2.594V20.073h7.109v2.156h-4.516v3.203h4.203v2.141h-4.203zm0 0"/><use xlink:href="#D" x="48.913"/><path d="M154.046 25.588h.859c.82 0 1.43-.141 1.828-.422s.594-.719.594-1.312c0-.582-.203-1-.609-1.25-.398-.25-1.023-.375-1.875-.375h-.797zm0 2.125v4.766h-2.625V20.073h3.609c1.688 0 2.93.309 3.734.922.813.617 1.219 1.547 1.219 2.797 0 .73-.203 1.383-.609 1.953-.398.563-.961 1.008-1.687 1.328l3.641 5.406h-2.922l-2.953-4.766zm0 0"/><use xlink:href="#C" y="23.742"/><use xlink:href="#D" y="23.742"/><use xlink:href="#E"/><use xlink:href="#E" x="16.072"/><path d="M144.744 43.815v8.031c0 .918-.211 1.719-.625 2.406-.406.688-.996 1.219-1.766 1.594-.773.367-1.687.547-2.75.547-1.594 0-2.836-.406-3.719-1.219-.887-.82-1.328-1.941-1.328-3.359v-8h2.625v7.594c0 .961.191 1.664.578 2.109s1.02.672 1.906.672c.863 0 1.488-.223 1.875-.672.383-.457.578-1.164.578-2.125v-7.578zm13.729 12.406h-3.344l-5.391-9.391h-.078l.156 3.547v5.844h-2.344V43.815h3.313l5.391 9.297h.063l-.125-3.422v-5.875h2.359zm2.815 0V43.815h2.625v12.406zm10.221 0h-2.625V46.002h-3.375v-2.187h9.375v2.188h-3.375zm8.829-7.297l2.594-5.109h2.828l-4.109 7.578v4.828h-2.625v-4.75l-4.109-7.656h2.844zm0 0"/></g></svg>